# xmcd
#
# Track frame offsets:
#	150
#	15391
#	31172
#	46156
#	64476
#	80579
#	97855
#	116949
#	138007
#	156597
#	177544
#	193958
#	210510
#	225139
#	242300
#	255669
#	268472
#	288140
#
# Disc length: 4085 seconds
#
# Revision: 0
# Processed by: cddbd v1.5.2PL0 Copyright (c) Steve Scherf et al.
# Submitted via: audiograbber 1.83.01
#
DISCID=f50ff312
DTITLE=Sherbert - Sherbert Live
DYEAR=1900
DGENRE=
TTITLE0=Slipstream
TTITLE1=Endless Place
TTITLE2=Wild Love
TTITLE3=Silvery Moon
TTITLE4=Cassandra
TTITLE5=Blueswalkin'
TTITLE6=Gimme Love
TTITLE7=Lady Of The Night
TTITLE8=Hollywood Dreaming
TTITLE9=If I Had My Way
TTITLE10=Child's Play
TTITLE11=Motor Of Love
TTITLE12=I'll Be Gone
TTITLE13=Howzat
TTITLE14=Nowhere Man
TTITLE15=The Way I Am
TTITLE16=You Keep Me Hangin' On
TTITLE17=Hound Dog
EXTD=
EXTT0=
EXTT1=
EXTT2=
EXTT3=
EXTT4=
EXTT5=
EXTT6=
EXTT7=
EXTT8=
EXTT9=
EXTT10=
EXTT11=
EXTT12=
EXTT13=
EXTT14=
EXTT15=
EXTT16=
EXTT17=
PLAYORDER=
